<svg width="64" height="64" viewBox="0 0 64 64" fill="none" xmlns="http://www.w3.org/2000/svg">
<g clip-path="url(#clip0_703_1402)">
<path d="M40.4153 52.498H31.9427L34.5045 59.9031L40.4153 52.498Z" fill="#699AF0"/>
<path d="M26.1009 3.75067H3.74979C1.68216 3.75067 0 5.43283 0 7.50047V44.9984C0 47.0661 1.68216 48.7482 3.74979 48.7482H41.6771L26.1009 3.75067ZM16.5616 37.1863C10.5309 37.1863 5.62469 32.2801 5.62469 26.2494C5.62469 20.2188 10.5309 15.3125 16.5616 15.3125C19.3833 15.3125 22.062 16.384 24.1043 18.3296L25.4619 19.6228L22.8755 22.3379L21.5179 21.0447C20.176 19.7664 18.4159 19.0625 16.5616 19.0625C12.5986 19.0625 9.37449 22.2865 9.37449 26.2496C9.37449 30.2126 12.5986 33.4367 16.5616 33.4367C19.8762 33.4367 22.6739 31.181 23.5007 28.1245H14.6867V24.3747H27.4985V26.2496C27.4985 32.28 22.5923 37.1863 16.5616 37.1863Z" fill="#699AF0"/>
<path d="M60.2505 15.2518L34.0483 15.2474L46.4193 50.9855L39.0274 60.2461L60.242 60.2492C62.3104 60.2492 63.9923 58.5677 63.9927 56.5002L63.9997 19.0022C63.9999 16.9347 62.3181 15.2523 60.2505 15.2518Z" fill="#699AF0"/>
</g>
<defs>
<clipPath id="clip0_703_1402">
<rect width="64" height="64" fill="white"/>
</clipPath>
</defs>
</svg>
