<svg width="64" height="64" viewBox="0 0 64 64" fill="none" xmlns="http://www.w3.org/2000/svg">
<g clip-path="url(#clip0_703_1343)">
<path d="M63.2187 59.448L56.4453 52.6747C57.8427 50.5653 58.6667 48.0453 58.6667 45.3333C58.6667 37.9813 52.6853 32 45.3333 32C37.9813 32 32 37.9813 32 45.3333C32 52.6853 37.9813 58.6667 45.3333 58.6667C48.0453 58.6667 50.5653 57.8427 52.6747 56.4453L59.448 63.2187C60.4907 64.2613 62.176 64.2613 63.2187 63.2187C64.2613 62.176 64.2613 60.4907 63.2187 59.448ZM45.3333 53.3333C40.9227 53.3333 37.3333 49.744 37.3333 45.3333C37.3333 40.9227 40.9227 37.3333 45.3333 37.3333C49.744 37.3333 53.3333 40.9227 53.3333 45.3333C53.3333 49.744 49.744 53.3333 45.3333 53.3333Z" fill="#699AF0"/>
<path d="M50.6667 0H8C3.58133 0 0 3.58133 0 8C0 12.4187 3.58133 16 8 16H50.6667C55.0853 16 58.6667 12.4187 58.6667 8C58.6667 3.58133 55.0853 0 50.6667 0ZM8 10.6667C6.528 10.6667 5.33333 9.472 5.33333 8C5.33333 6.528 6.528 5.33333 8 5.33333C9.472 5.33333 10.6667 6.528 10.6667 8C10.6667 9.472 9.472 10.6667 8 10.6667ZM18.6667 10.6667C17.1947 10.6667 16 9.472 16 8C16 6.528 17.1947 5.33333 18.6667 5.33333C20.1387 5.33333 21.3333 6.528 21.3333 8C21.3333 9.472 20.1387 10.6667 18.6667 10.6667Z" fill="#699AF0"/>
<path d="M50.6667 21.3333H8C3.57333 21.3333 0 24.9066 0 29.3333C0 33.76 3.57333 37.3333 8 37.3333H28.48C31.4667 31.04 37.8933 26.6666 45.3333 26.6666C50.3467 26.6666 54.88 28.64 58.24 31.8666C58.5333 31.0666 58.6667 30.2133 58.6667 29.3333C58.6667 24.9066 55.0933 21.3333 50.6667 21.3333ZM8 32C6.53333 32 5.33333 30.8 5.33333 29.3333C5.33333 27.8666 6.53333 26.6666 8 26.6666C9.46667 26.6666 10.6667 27.8666 10.6667 29.3333C10.6667 30.8 9.46667 32 8 32ZM18.6667 32C17.2 32 16 30.8 16 29.3333C16 27.8666 17.2 26.6666 18.6667 26.6666C20.1333 26.6666 21.3333 27.8666 21.3333 29.3333C21.3333 30.8 20.1333 32 18.6667 32Z" fill="#699AF0"/>
<path d="M26.6667 45.3334C26.6667 44.4267 26.72 43.5467 26.88 42.6667H8C3.57333 42.6667 0 46.24 0 50.6667C0 55.0934 3.57333 58.6667 8 58.6667H32.2933C28.8267 55.28 26.6667 50.56 26.6667 45.3334ZM8 53.3334C6.53333 53.3334 5.33333 52.1334 5.33333 50.6667C5.33333 49.2 6.53333 48 8 48C9.46667 48 10.6667 49.2 10.6667 50.6667C10.6667 52.1334 9.46667 53.3334 8 53.3334ZM18.6667 53.3334C17.2 53.3334 16 52.1334 16 50.6667C16 49.2 17.2 48 18.6667 48C20.1333 48 21.3333 49.2 21.3333 50.6667C21.3333 52.1334 20.1333 53.3334 18.6667 53.3334Z" fill="#699AF0"/>
</g>
<defs>
<clipPath id="clip0_703_1343">
<rect width="64" height="64" fill="white"/>
</clipPath>
</defs>
</svg>
