<svg width="64" height="64" viewBox="0 0 64 64" fill="none" xmlns="http://www.w3.org/2000/svg">
<g clip-path="url(#clip0_703_1282)">
<path d="M63.136 21.0187L33.136 0.352C32.4533 -0.117333 31.552 -0.117333 30.8667 0.352L0.866667 21.0187C0.322667 21.392 0 22.008 0 22.6667V61.3333C0 62.8053 1.19467 64 2.66667 64H8V32C8 30.528 9.19467 29.3333 10.6667 29.3333H53.3333C54.8053 29.3333 56 30.528 56 32V64H61.3333C62.8053 64 64 62.8053 64 61.3333V22.6667C64 22.008 63.6773 21.392 63.136 21.0187Z" fill="#699AF0"/>
<path d="M24.6661 50.6667V52.6667C24.6661 53.7707 23.7701 54.6667 22.6661 54.6667C21.5621 54.6667 20.6661 53.7707 20.6661 52.6667V50.6667H15.9994C15.2634 50.6667 14.6661 51.264 14.6661 52V62.6667C14.6661 63.4027 15.2634 64 15.9994 64H29.3327C30.0687 64 30.6661 63.4027 30.6661 62.6667V52C30.6661 51.264 30.0687 50.6667 29.3327 50.6667H24.6661Z" fill="#699AF0"/>
<path d="M43.3339 50.6667V52.6667C43.3339 53.7707 42.4379 54.6667 41.3339 54.6667C40.2299 54.6667 39.3339 53.7707 39.3339 52.6667V50.6667H34.6672C33.9312 50.6667 33.3339 51.264 33.3339 52V62.6667C33.3339 63.4027 33.9312 64 34.6672 64H48.0006C48.7366 64 49.3339 63.4027 49.3339 62.6667V52C49.3339 51.264 48.7366 50.6667 48.0006 50.6667H43.3339Z" fill="#699AF0"/>
<path d="M34 34.6667V36.6667C34 37.7707 33.104 38.6667 32 38.6667C30.896 38.6667 30 37.7707 30 36.6667V34.6667H25.3333C24.5973 34.6667 24 35.264 24 36V46.6667C24 47.4027 24.5973 48 25.3333 48H38.6667C39.4027 48 40 47.4027 40 46.6667V36C40 35.264 39.4027 34.6667 38.6667 34.6667H34Z" fill="#699AF0"/>
</g>
<defs>
<clipPath id="clip0_703_1282">
<rect width="64" height="64" fill="white"/>
</clipPath>
</defs>
</svg>
