<svg width="64" height="64" viewBox="0 0 64 64" fill="none" xmlns="http://www.w3.org/2000/svg">
<g clip-path="url(#clip0_703_1373)">
<path d="M62.9973 30.1082C62.9328 30.0649 62.8662 30.025 62.7975 29.9886L58.2558 27.5429L33.0695 40.8778C32.4004 41.2321 31.5992 41.2321 30.9301 40.8778L5.74395 27.5429L1.20217 29.9886C0.0983317 30.5745 -0.321668 31.9443 0.264269 33.0482C0.300698 33.1167 0.340608 33.1834 0.383867 33.248L31.9998 49.9862L63.6158 33.248C64.3121 32.2102 64.0352 30.8045 62.9973 30.1082Z" fill="#699AF0"/>
<path d="M63.7243 44.6286C63.5125 44.2363 63.1907 43.9145 62.7986 43.7029L58.2569 41.2572L33.0706 54.5921C32.4015 54.9464 31.6003 54.9464 30.9312 54.5921L5.74491 41.2572L1.20312 43.7029C0.0921872 44.3025 -0.322187 45.689 0.27741 46.8C0.489151 47.1922 0.810981 47.5141 1.20312 47.7257L30.9174 63.7257C31.5938 64.0899 32.4079 64.0899 33.0843 63.7257L62.7986 47.7257C63.9094 47.1261 64.3239 45.7395 63.7243 44.6286Z" fill="#699AF0"/>
<path d="M62.9973 16.3939C62.9328 16.3506 62.8662 16.3107 62.7975 16.2743L33.0833 0.274273C32.407 -0.0898782 31.5928 -0.0898782 30.9165 0.274273L1.20217 16.2743C0.0983317 16.8602 -0.321668 18.2301 0.264269 19.3339C0.300698 19.4025 0.340608 19.4692 0.383867 19.5337L31.9998 36.272L63.6158 19.5337C64.3121 18.4959 64.0352 17.0902 62.9973 16.3939Z" fill="#699AF0"/>
</g>
<defs>
<clipPath id="clip0_703_1373">
<rect width="64" height="64" fill="white"/>
</clipPath>
</defs>
</svg>
