<svg width="64" height="64" viewBox="0 0 64 64" fill="none" xmlns="http://www.w3.org/2000/svg">
<path d="M22.625 56.375V60.25H17C15.9636 60.25 15.125 61.0886 15.125 62.125C15.125 63.1614 15.9636 64 17 64H47C48.0364 64 48.875 63.1614 48.875 62.125C48.875 61.0886 48.0364 60.25 47 60.25H41.375V56.375H22.625Z" fill="#699AF0"/>
<path d="M1.875 52.625H62.125C63.1614 52.625 64 51.7864 64 50.75V9.5C64 8.46362 63.1614 7.625 62.125 7.625H58.25V39.5C58.25 42.6017 55.7267 45.125 52.625 45.125H11.375C8.27325 45.125 5.75 42.6017 5.75 39.5V7.625H1.875C0.838625 7.625 0 8.46362 0 9.5V50.75C0 51.7864 0.838625 52.625 1.875 52.625Z" fill="#699AF0"/>
<path d="M43.528 29.0702L38.7159 27.4645L40.3199 32.2784L43.528 29.0702Z" fill="#699AF0"/>
<path d="M54.5 1.875C54.5 0.838625 53.6614 0 52.625 0H11.375C10.3386 0 9.5 0.838625 9.5 1.875V15.125H54.5V1.875ZM17 9.5C15.9645 9.5 15.125 8.6605 15.125 7.625C15.125 6.58925 15.9645 5.75 17 5.75C18.0355 5.75 18.875 6.58925 18.875 7.625C18.875 8.6605 18.0355 9.5 17 9.5ZM24.5 9.5C23.4645 9.5 22.625 8.6605 22.625 7.625C22.625 6.58925 23.4645 5.75 24.5 5.75C25.5355 5.75 26.375 6.58925 26.375 7.625C26.375 8.6605 25.5355 9.5 24.5 9.5ZM32 9.5C30.9645 9.5 30.125 8.6605 30.125 7.625C30.125 6.58925 30.9645 5.75 32 5.75C33.0355 5.75 33.875 6.58925 33.875 7.625C33.875 8.6605 33.0355 9.5 32 9.5Z" fill="#699AF0"/>
<path d="M9.5 39.5C9.5 40.5364 10.3386 41.375 11.375 41.375H52.625C53.6614 41.375 54.5 40.5364 54.5 39.5V18.875H9.5V39.5ZM34.4244 23.1744C34.9297 22.6764 35.6731 22.495 36.3434 22.7221L47.5934 26.4721C48.2086 26.6772 48.6774 27.1862 48.8239 27.8197C48.974 28.4515 48.7873 29.1161 48.3259 29.5758L45.9014 32L48.3257 34.4244C49.0581 35.1567 49.0581 36.3434 48.3257 37.0757C47.5934 37.8081 46.4067 37.8081 45.6744 37.0757L43.25 34.6514L40.8256 37.0757C40.3736 37.5277 39.7151 37.7249 39.0679 37.5756C38.438 37.4255 37.9252 36.9604 37.7202 36.3434L33.9702 25.0934C33.7469 24.4194 33.9226 23.676 34.4244 23.1744ZM17 22.625H28.25C29.2864 22.625 30.125 23.4636 30.125 24.5C30.125 25.5364 29.2864 26.375 28.25 26.375H17C15.9636 26.375 15.125 25.5364 15.125 24.5C15.125 23.4636 15.9636 22.625 17 22.625ZM17 30.125H28.25C29.2864 30.125 30.125 30.9636 30.125 32C30.125 33.0364 29.2864 33.875 28.25 33.875H17C15.9636 33.875 15.125 33.0364 15.125 32C15.125 30.9636 15.9636 30.125 17 30.125Z" fill="#699AF0"/>
</svg>
