<svg width="64" height="64" viewBox="0 0 64 64" fill="none" xmlns="http://www.w3.org/2000/svg">
<path d="M52.7819 2.4375H1.875C0.8395 2.4375 0 3.277 0 4.3125V9.92025H52.7819V2.4375Z" fill="#699AF0"/>
<path d="M62.1242 2.4375H56.5311V9.92025H63.9992V4.3125C63.9992 3.277 63.1597 2.4375 62.1242 2.4375Z" fill="#699AF0"/>
<path d="M0 59.6875C0 60.723 0.8395 61.5625 1.875 61.5625H62.125C63.1605 61.5625 64 60.723 64 59.6875V13.6702H0V59.6875ZM7.50012 30.4888C7.50012 30.4848 7.50075 30.4811 7.50075 30.4771C7.484 29.6844 7.97462 28.937 8.7645 28.665L27.6395 22.1647C28.0478 22.0242 28.4918 22.0289 28.8969 22.1777L42.5235 27.1857L52.8716 18.8207C53.9276 17.3894 56.2467 18.1287 56.2501 19.9377V36.9376C56.1604 39.4175 52.5933 39.4256 52.5001 36.9376V23.9431L48.7501 26.9745V36.9375C48.7501 37.973 47.9106 38.8125 46.8751 38.8125C45.8396 38.8125 45.0001 37.973 45.0001 36.9375V30.0056C44.1254 30.6931 43.463 31.5034 42.2282 31.0723L41.2501 30.7129V36.9375C41.2501 37.973 40.4106 38.8125 39.3751 38.8125C38.3396 38.8125 37.5001 37.973 37.5001 36.9375V29.3347L33.7501 27.9565V36.9375C33.7501 37.973 32.9106 38.8125 31.8751 38.8125C30.8396 38.8125 30.0001 37.973 30.0001 36.9375V26.5782L28.2296 25.9276L26.2477 26.6101C26.2611 26.6194 26.2431 36.914 26.2502 36.9373C26.2502 37.9728 25.4107 38.8123 24.3752 38.8123C23.3398 38.8123 22.5002 37.9728 22.5002 36.9373V27.9006L18.748 29.1929C18.756 29.2207 18.747 36.9017 18.7502 36.9373C18.7502 37.9728 17.9107 38.8123 16.8752 38.8123C15.8398 38.8123 15.0002 37.9728 15.0002 36.9373V30.4836L11.2502 31.7751V36.9375C11.2502 37.973 10.4107 38.8125 9.37525 38.8125C8.33975 38.8125 7.50025 37.973 7.50025 36.9375V30.4888H7.50012ZM9.375 42.8125H54.6183C55.6538 42.8125 56.4933 43.652 56.4933 44.6875C56.4933 45.723 55.6538 46.5625 54.6183 46.5625H9.375C6.90425 46.4768 6.87875 42.9085 9.375 42.8125ZM9.375 50.3125H39.9466C40.9821 50.3125 41.8216 51.152 41.8216 52.1875C41.8216 53.223 40.9821 54.0625 39.9466 54.0625H9.375C6.89937 53.9746 6.88313 50.407 9.375 50.3125Z" fill="#699AF0"/>
</svg>
